<?xml version="1.0" encoding="UTF-8"?>
<!DOCTYPE svg PUBLIC "-//W3C//DTD SVG 1.1//EN" "http://www.w3.org/Graphics/SVG/1.1/DTD/svg11.dtd">
<svg xmlns="http://www.w3.org/2000/svg" version="1.1" width="361px" height="361px" style="shape-rendering:geometricPrecision; text-rendering:geometricPrecision; image-rendering:optimizeQuality; fill-rule:evenodd; clip-rule:evenodd" xmlns:xlink="http://www.w3.org/1999/xlink">
<g><path style="opacity:0.98" fill="#030706" d="M 166.5,2.5 C 175.833,2.5 185.167,2.5 194.5,2.5C 194.5,18.8333 194.5,35.1667 194.5,51.5C 185.167,51.5 175.833,51.5 166.5,51.5C 166.5,35.1667 166.5,18.8333 166.5,2.5 Z"/></g>
<g><path style="opacity:0.969" fill="#030706" d="M 80.5,91.5 C 147.167,91.5 213.833,91.5 280.5,91.5C 280.5,101.167 280.5,110.833 280.5,120.5C 213.833,120.5 147.167,120.5 80.5,120.5C 80.5,110.833 80.5,101.167 80.5,91.5 Z"/></g>
<g><path style="opacity:0.961" fill="#030706" d="M 80.5,165.5 C 147.167,165.5 213.833,165.5 280.5,165.5C 280.5,175.167 280.5,184.833 280.5,194.5C 213.833,194.5 147.167,194.5 80.5,194.5C 80.5,184.833 80.5,175.167 80.5,165.5 Z"/></g>
<g><path style="opacity:0.969" fill="#030706" d="M 80.5,237.5 C 147.167,237.5 213.833,237.5 280.5,237.5C 280.5,247.167 280.5,256.833 280.5,266.5C 213.833,266.5 147.167,266.5 80.5,266.5C 80.5,256.833 80.5,247.167 80.5,237.5 Z"/></g>
<g><path style="opacity:0.98" fill="#030706" d="M 166.5,309.5 C 175.833,309.5 185.167,309.5 194.5,309.5C 194.5,325.833 194.5,342.167 194.5,358.5C 185.167,358.5 175.833,358.5 166.5,358.5C 166.5,342.167 166.5,325.833 166.5,309.5 Z"/></g>
</svg>
